{
  "asset": {
    "generator": "Khronos glTF Blender I/O v1.6.8",
    "version": "2.0"
  },
  "scene": 0,
  "scenes": [
    {
      "name": "Scene",
      "nodes": [
        0
      ]
    }
  ],
  "nodes": [
    {
      "mesh": 0,
      "name": "sphere_gltf"
    }
  ],
  "materials": [
    {
      "doubleSided": true,
      "name": "floor_pebbles_01",
      "normalTexture": {
        "index": 0
      },
      "pbrMetallicRoughness": {
        "baseColorTexture": {
          "index": 1
        },
        "metallicFactor": 0,
        "metallicRoughnessTexture": {
          "index": 2
        }
      }
    }
  ],
  "meshes": [
    {
      "name": "Sphere.004",
      "primitives": [
        {
          "attributes": {
            "POSITION": 0,
            "NORMAL": 1,
            "TEXCOORD_0": 2
          },
          "indices": 3,
          "material": 0
        }
      ]
    }
  ],
  "textures": [
    {
      "sampler": 0,
      "source": 0
    },
    {
      "sampler": 0,
      "source": 1
    },
    {
      "sampler": 0,
      "source": 2
    }
  ],
  "images": [
    {
      "mimeType": "image/jpeg",
      "name": "floor_pebbles_01_nor_gl_4k",
      "uri": "textures/floor_pebbles_01_nor_gl_4k.jpg"
    },
    {
      "mimeType": "image/jpeg",
      "name": "floor_pebbles_01_diff_4k",
      "uri": "textures/floor_pebbles_01_diff_4k.jpg"
    },
    {
      "mimeType": "image/jpeg",
      "name": "floor_pebbles_01_rough_4k",
      "uri": "textures/floor_pebbles_01_rough_4k.jpg"
    }
  ],
  "accessors": [
    {
      "bufferView": 0,
      "componentType": 5126,
      "count": 53906,
      "max": [
        1.4949060678482056,
        1.5091297626495361,
        1.5049351453781128
      ],
      "min": [
        -1.4949055910110474,
        -1.5152404308319092,
        -1.5050128698349
      ],
      "type": "VEC3"
    },
    {
      "bufferView": 1,
      "componentType": 5126,
      "count": 53906,
      "type": "VEC3"
    },
    {
      "bufferView": 2,
      "componentType": 5126,
      "count": 53906,
      "type": "VEC2"
    },
    {
      "bufferView": 3,
      "componentType": 5123,
      "count": 322170,
      "type": "SCALAR"
    }
  ],
  "bufferViews": [
    {
      "buffer": 0,
      "byteLength": 646872,
      "byteOffset": 0
    },
    {
      "buffer": 0,
      "byteLength": 646872,
      "byteOffset": 646872
    },
    {
      "buffer": 0,
      "byteLength": 431248,
      "byteOffset": 1293744
    },
    {
      "buffer": 0,
      "byteLength": 644340,
      "byteOffset": 1724992
    }
  ],
  "samplers": [
    {
      "magFilter": 9729,
      "minFilter": 9987
    }
  ],
  "buffers": [
    {
      "byteLength": 2369332,
      "uri": "floor_pebbles_01.bin"
    }
  ]
}